<svg xmlns="http://www.w3.org/2000/svg" viewBox="0 0 1280 360" width="1280" height="360" role="img"><title>Lademonitor</title><defs><linearGradient id="bg" x1="0" y1="0" x2="1" y2="1"><stop offset="0" stop-color="#1A2335"/><stop offset="1" stop-color="#0B1018"/></linearGradient></defs><rect width="1280" height="360" fill="url(#bg)"/><g transform="translate(66.60,86.37) scale(1.6143)"><path d="M -16 101 L 262 101" stroke="#2B3446" stroke-width="2.2" stroke-linecap="round" opacity="0.4"/><ellipse cx="166" cy="100.5" rx="92" ry="3.4" fill="#0B1018" opacity="0.32"/><ellipse cx="20" cy="100.5" rx="26" ry="3.4" fill="#0B1018" opacity="0.32"/><g><rect x="-4" y="93" width="48" height="7" rx="3.5" fill="#6E7890" opacity="0.5"/><rect x="22" y="57" width="20" height="18" rx="8" fill="#6E7890"/><rect x="3" y="16" width="34" height="80" rx="13" fill="#6E7890"/><path d="M 4.2 33 L 4.2 29 A 11.8 11.8 0 0 1 16 17.2 L 24 17.2 A 11.8 11.8 0 0 1 35.8 29 L 35.8 33" fill="none" stroke="#AEB8CC" stroke-width="2.4" stroke-linecap="round" opacity="0.4"/><rect x="9" y="24" width="22" height="23" rx="5" fill="#2B3446"/><rect x="12.5" y="30" width="15" height="11" rx="2.5" fill="none" stroke="#3BF07C" stroke-width="1.8" opacity="0.55"/><rect x="14.5" y="32" width="7" height="7" rx="1.2" fill="#3BF07C"/><rect x="28.2" y="33" width="2" height="5" rx="1" fill="#3BF07C" opacity="0.55"/><rect x="9" y="51" width="22" height="4" rx="2" fill="#3BF07C" opacity="0.9"/><circle cx="35" cy="66" r="4.6" fill="#2B3446"/></g><g transform="translate(74,0)"><path d="M 4 80 C 3 71, 3 66, 6 60 C 9 52, 12 46, 18 41 C 26 34, 32 30, 42 28.5 L 114 27 C 126 27, 136 33, 146 45 C 156 45.5, 166 45.5, 174 46.5 C 180 47, 182 53, 182 61 C 182 71, 181 77, 179 80 L 164 80 A 22 22 0 0 0 120 80 L 62 80 A 22 22 0 0 0 18 80 Z" fill="#8C96AC"/><path d="M 22 41 C 29 34.5, 37 31.5, 48 30.5 L 114 30 C 124 31.5, 133 37, 140 44 Z" fill="#2B3446"/><path d="M 88 29.8 L 88 43.4" stroke="#8C96AC" stroke-width="4"/><path d="M 45 29.6 L 40 41.6" stroke="#8C96AC" stroke-width="4.4"/><path d="M 90 45 L 90 72" stroke="#2B3446" stroke-width="1.8" stroke-linecap="round" opacity="0.45"/><path d="M 46 42 L 46 71" stroke="#2B3446" stroke-width="1.8" stroke-linecap="round" opacity="0.45"/><rect x="64" y="49" width="13" height="4" rx="2" fill="#2B3446" opacity="0.6"/><rect x="98" y="49" width="13" height="4" rx="2" fill="#2B3446" opacity="0.6"/><path d="M 16 60 C 70 57, 120 57, 174 59" stroke="#2B3446" stroke-width="2.2" fill="none" opacity="0.28" stroke-linecap="round"/><path d="M 163 52 L 180 54 L 180 59 L 163 57 Z" fill="#2B3446" opacity="0.85"/><path d="M 5 50 L 15 48.5 L 15 54 L 5.4 55.5 Z" fill="#2B3446" opacity="0.85"/><path d="M 15 78 A 25 25 0 0 1 65 78" fill="none" stroke="#2B3446" stroke-width="3" opacity="0.16" stroke-linecap="round"/><path d="M 117 78 A 25 25 0 0 1 167 78" fill="none" stroke="#2B3446" stroke-width="3" opacity="0.16" stroke-linecap="round"/><circle cx="142" cy="80" r="20" fill="#2B3446"/><circle cx="142" cy="80" r="10.4" fill="#6E7890"/><circle cx="142" cy="80" r="3.4" fill="#2B3446"/><circle cx="40" cy="80" r="20" fill="#2B3446"/><circle cx="40" cy="80" r="10.4" fill="#6E7890"/><circle cx="40" cy="80" r="3.4" fill="#2B3446"/><circle cx="27" cy="49" r="3.8" fill="#3BF07C"/><circle cx="27" cy="49" r="7.2" fill="#3BF07C" opacity="0.2"/></g><path d="M 40.0 66.0 C 54 90, 74 92, 86 80 C 94 72, 96 58, 101 49" fill="none" stroke="#3BF07C" stroke-width="19.2" stroke-linecap="round" opacity="0.16"/><path d="M 40.0 66.0 C 54 90, 74 92, 86 80 C 94 72, 96 58, 101 49" fill="none" stroke="#3BF07C" stroke-width="6" stroke-linecap="round" stroke-dasharray="9 10"/></g><text x="522" y="186" font-family="Inter, -apple-system, BlinkMacSystemFont, Segoe UI, Roboto, sans-serif" font-size="92" font-weight="700" letter-spacing="-2" fill="#AEB8CC">Lade<tspan fill="#3BF07C">monitor</tspan></text><text x="526" y="244" font-family="Inter, -apple-system, BlinkMacSystemFont, Segoe UI, Roboto, sans-serif" font-size="26" font-weight="500" letter-spacing="6.4" fill="#6E7890">LADEVORGÄNGE IM BLICK</text></svg>