<svg xmlns="http://www.w3.org/2000/svg" viewBox="0 0 512 512" width="512" height="512" role="img"><title>Lademonitor</title><defs><linearGradient id="bg" x1="0" y1="0" x2="0.35" y2="1"><stop offset="0" stop-color="#1A2335"/><stop offset="1" stop-color="#0B1018"/></linearGradient><radialGradient id="g15"><stop offset="0" stop-color="#3BF07C" stop-opacity="0.13"/><stop offset="1" stop-color="#3BF07C" stop-opacity="0.0"/></radialGradient></defs><rect x="0" y="0" width="512" height="512" rx="114.5" fill="url(#bg)"/><path d="M 80.7 118.3 L 407.3 118.3 A 206 206 0 1 1 80.7 118.3 Z" fill="#6E7890" opacity="0.16"/><path d="M 80.7 118.3 L 407.3 118.3 A 206 206 0 1 1 80.7 118.3 Z" fill="url(#g15)"/><path d="M 80.7 118.3 L 407.3 118.3 A 206 206 0 1 1 80.7 118.3 Z" fill="none" stroke="#8C96AC" stroke-width="16"/><circle cx="192.0" cy="146.0" r="14" fill="#0B1018" opacity="0.9"/><circle cx="296.0" cy="146.0" r="14" fill="#0B1018" opacity="0.9"/><circle cx="91.9" cy="182.6" r="20" fill="#0B1018" opacity="0.9"/><circle cx="157.1" cy="104.9" r="20" fill="#0B1018" opacity="0.9"/><circle cx="330.9" cy="104.9" r="20" fill="#0B1018" opacity="0.9"/><circle cx="396.1" cy="182.6" r="20" fill="#0B1018" opacity="0.9"/><g transform="translate(109.45,192.30) scale(1.5758)"><path d="M -14 -2 L 202 -2" stroke="#2B3446" stroke-width="2.2" stroke-linecap="round" opacity="0.3"/><ellipse cx="94" cy="100.5" rx="84" ry="3.4" fill="#0B1018" opacity="0.32"/><path d="M 4 80 C 3 71, 3 66, 6 60 C 9 52, 12 46, 18 41 C 26 34, 32 30, 42 28.5 L 114 27 C 126 27, 136 33, 146 45 C 156 45.5, 166 45.5, 174 46.5 C 180 47, 182 53, 182 61 C 182 71, 181 77, 179 80 L 164 80 A 22 22 0 0 0 120 80 L 62 80 A 22 22 0 0 0 18 80 Z" fill="#8C96AC"/><path d="M 22 41 C 29 34.5, 37 31.5, 48 30.5 L 114 30 C 124 31.5, 133 37, 140 44 Z" fill="#2B3446"/><path d="M 88 29.8 L 88 43.4" stroke="#8C96AC" stroke-width="4"/><path d="M 45 29.6 L 40 41.6" stroke="#8C96AC" stroke-width="4.4"/><path d="M 90 45 L 90 72" stroke="#2B3446" stroke-width="1.8" stroke-linecap="round" opacity="0.45"/><path d="M 46 42 L 46 71" stroke="#2B3446" stroke-width="1.8" stroke-linecap="round" opacity="0.45"/><rect x="64" y="49" width="13" height="4" rx="2" fill="#2B3446" opacity="0.6"/><rect x="98" y="49" width="13" height="4" rx="2" fill="#2B3446" opacity="0.6"/><path d="M 16 60 C 70 57, 120 57, 174 59" stroke="#2B3446" stroke-width="2.2" fill="none" opacity="0.28" stroke-linecap="round"/><path d="M 163 52 L 180 54 L 180 59 L 163 57 Z" fill="#2B3446" opacity="0.85"/><path d="M 5 50 L 15 48.5 L 15 54 L 5.4 55.5 Z" fill="#2B3446" opacity="0.85"/><path d="M 15 78 A 25 25 0 0 1 65 78" fill="none" stroke="#2B3446" stroke-width="3" opacity="0.16" stroke-linecap="round"/><path d="M 117 78 A 25 25 0 0 1 167 78" fill="none" stroke="#2B3446" stroke-width="3" opacity="0.16" stroke-linecap="round"/><circle cx="142" cy="80" r="20" fill="#2B3446"/><circle cx="142" cy="80" r="10.4" fill="#6E7890"/><circle cx="142" cy="80" r="3.4" fill="#2B3446"/><circle cx="40" cy="80" r="20" fill="#2B3446"/><circle cx="40" cy="80" r="10.4" fill="#6E7890"/><circle cx="40" cy="80" r="3.4" fill="#2B3446"/><circle cx="27" cy="49" r="3.8" fill="#3BF07C"/><circle cx="27" cy="49" r="7.2" fill="#3BF07C" opacity="0.2"/></g><path d="M 244.0 446.0 C 244.0 496, 340.0 504, 412.0 468" fill="none" stroke="#3BF07C" stroke-width="30.4" stroke-linecap="round" opacity="0.16"/><path d="M 244.0 446.0 C 244.0 496, 340.0 504, 412.0 468" fill="none" stroke="#3BF07C" stroke-width="9.5" stroke-linecap="round" stroke-dasharray="15 16"/></svg>